<?xml version="1.0" standalone="no"?>
<!DOCTYPE svg PUBLIC "-//W3C//DTD SVG 20010904//EN"
 "http://www.w3.org/TR/2001/REC-SVG-20010904/DTD/svg10.dtd">
<svg version="1.0" xmlns="http://www.w3.org/2000/svg"
 width="256.000000pt" height="256.000000pt" viewBox="0 0 256.000000 256.000000"
 preserveAspectRatio="xMidYMid meet">
<metadata>
Created by potrace 1.11, written by Peter Selinger 2001-2013
</metadata>
<g transform="translate(0.000000,256.000000) scale(0.100000,-0.100000)"
fill="#000000" stroke="none">
<path d="M1450 2521 c0 -3 -20 -14 -44 -24 -24 -10 -47 -25 -50 -33 -3 -9 -11
-12 -17 -8 -8 4 -9 3 -5 -4 4 -7 2 -12 -3 -12 -6 0 -11 -7 -11 -15 0 -8 -4
-15 -9 -15 -8 0 -12 -10 -28 -70 -8 -29 -8 -108 -1 -104 7 5 12 -27 11 -64 -1
-7 1 -11 4 -8 7 7 32 -17 26 -26 -2 -5 4 -8 14 -8 17 -1 17 -1 0 -11 -14 -8
-22 -7 -33 8 -13 16 -13 16 -8 1 4 -13 1 -18 -11 -18 -10 0 -14 5 -9 13 6 10
4 10 -7 0 -17 -16 -53 -17 -43 -1 5 7 3 8 -7 2 -15 -9 -29 -12 -72 -16 -16 -1
-31 -6 -34 -11 -2 -4 -11 -2 -19 4 -9 7 -14 8 -13 3 4 -23 -2 -26 -16 -8 -15
19 -15 19 -9 -1 4 -15 4 -17 -4 -6 -6 8 -9 22 -7 32 2 10 -1 22 -7 25 -7 5 -8
2 -3 -7 8 -12 6 -12 -8 0 -9 7 -15 16 -14 20 4 8 -36 45 -53 49 -8 2 -27 13
-44 25 -17 12 -26 15 -21 6 7 -11 6 -12 -6 -3 -8 5 -23 10 -34 9 -11 0 -28 3
-38 8 -10 5 -28 10 -39 12 -12 3 -24 8 -27 13 -13 19 -68 38 -88 31 -28 -10
-35 -24 -38 -69 -1 -20 -6 -43 -10 -50 -5 -9 -4 -11 3 -6 14 9 15 -4 2 -24 -5
-8 -10 -10 -10 -5 0 6 -11 12 -24 13 -18 1 -27 -5 -32 -21 -10 -33 -7 -76 8
-95 11 -14 10 -15 -7 -9 -19 7 -19 6 -2 -7 20 -16 23 -75 4 -95 -10 -11 -9
-13 1 -7 13 8 13 -19 -1 -41 -4 -6 -3 -14 3 -18 5 -3 10 -19 10 -36 0 -16 5
-29 11 -29 6 0 9 -9 6 -20 -3 -11 -1 -20 5 -20 5 0 6 -5 3 -10 -4 -6 -1 -9 7
-8 7 2 12 -2 11 -8 -1 -6 16 -19 37 -29 22 -10 37 -22 33 -27 -3 -6 -9 -4 -14
3 -7 11 -9 11 -9 1 0 -7 7 -15 15 -18 8 -4 12 -11 8 -17 -4 -6 -8 -32 -10 -57
-4 -72 -7 -80 -43 -98 -42 -21 -46 -32 -20 -60 12 -12 18 -26 15 -31 -3 -5 0
-13 6 -17 8 -4 9 -3 5 4 -4 7 -2 12 3 12 15 0 14 -12 -5 -38 -19 -27 -11 -72
12 -72 8 0 12 -5 9 -10 -3 -5 -1 -10 5 -10 6 0 8 -5 4 -12 -5 -8 -1 -8 12 2
10 8 16 11 13 7 -4 -5 4 -20 17 -34 13 -14 24 -32 24 -39 0 -8 5 -14 10 -14 6
0 10 -5 10 -11 0 -8 -4 -9 -13 0 -8 6 -16 8 -20 5 -3 -3 -3 4 0 17 4 14 2 20
-5 15 -6 -3 -17 2 -24 12 -27 38 -46 34 -77 -17 -7 -11 -13 -10 -32 3 -13 8
-29 12 -36 8 -16 -10 -31 -52 -28 -80 1 -12 -2 -22 -7 -22 -5 0 -2 -7 6 -16 9
-8 16 -24 16 -34 0 -10 5 -20 10 -22 6 -2 12 -13 12 -25 1 -12 7 -19 14 -16
11 4 39 -33 37 -47 -1 -3 1 -7 4 -10 4 -3 3 1 -1 7 -13 23 9 13 27 -12 16 -23
16 -24 0 -34 -10 -6 -14 -11 -10 -11 5 0 0 -12 -11 -27 -11 -16 -25 -46 -32
-68 -7 -22 -15 -44 -18 -49 -3 -5 -7 -30 -8 -55 -3 -38 -1 -43 9 -30 15 19 46
33 70 30 9 -1 17 3 17 9 0 6 -5 8 -12 4 -7 -4 -8 -3 -4 5 6 8 12 9 20 2 7 -6
15 -8 19 -5 3 3 13 -6 22 -20 19 -28 41 -36 31 -10 -3 8 -2 13 3 9 5 -3 12 1
15 7 3 7 3 2 0 -11 -3 -13 -2 -21 2 -18 12 7 11 -84 -1 -102 -6 -10 -4 -12 5
-6 10 6 12 3 8 -13 -4 -12 -2 -20 3 -16 5 3 9 0 9 -5 0 -6 -5 -11 -12 -11 -6
0 -3 -6 8 -14 10 -8 16 -18 12 -21 -4 -4 0 -14 8 -22 8 -8 11 -20 7 -26 -3 -7
-3 -9 2 -5 4 4 14 0 23 -8 13 -14 13 -17 1 -25 -12 -8 -12 -9 1 -7 8 1 29 -6
45 -16 17 -9 21 -15 10 -11 -15 4 -12 -1 10 -19 17 -14 26 -25 21 -26 -5 0 -3
-7 4 -15 9 -10 9 -15 1 -15 -6 0 -11 -5 -11 -11 0 -5 4 -7 10 -4 12 7 24 -38
17 -65 -3 -10 0 -21 7 -23 7 -3 3 -11 -9 -22 -11 -9 -14 -14 -8 -10 10 4 12
-5 11 -35 -1 -40 15 -66 34 -54 4 3 8 1 8 -5 0 -5 -3 -11 -7 -14 -5 -2 -2 -2
6 0 8 2 18 -2 23 -9 6 -10 8 -9 8 4 0 11 5 15 15 12 9 -4 12 -11 8 -18 -5 -7
-1 -4 9 6 17 19 33 25 23 9 -3 -5 0 -13 6 -17 8 -4 9 -3 5 4 -7 11 6 17 27 13
5 -1 6 3 2 9 -3 6 -11 7 -17 4 -7 -5 -8 -2 -4 5 5 7 10 10 14 7 3 -3 11 2 19
12 10 13 12 13 10 2 -2 -8 -2 -12 0 -7 3 4 8 5 12 2 5 -2 7 6 6 20 -3 18 1 22
13 17 15 -5 15 -4 3 11 -12 15 -10 18 10 26 13 5 19 10 12 10 -9 1 -8 8 2 28
10 20 11 30 3 40 -9 11 -7 12 8 6 17 -6 17 -5 5 10 -14 17 -7 22 24 18 6 -1 1
6 -10 15 -20 16 -19 16 5 9 21 -7 23 -6 12 7 -10 13 -8 15 14 10 19 -3 25 -1
20 7 -4 6 -2 11 3 11 6 0 11 -4 11 -10 0 -5 5 -10 11 -10 5 0 7 5 4 10 -4 6
14 1 39 -12 25 -12 43 -24 41 -28 -2 -4 2 -7 10 -7 8 0 12 3 10 7 -2 3 7 6 21
6 13 0 24 -4 24 -8 0 -4 5 -8 11 -8 5 0 8 4 5 8 -2 4 5 7 17 7 37 -2 77 -17
77 -28 0 -6 3 -7 7 -4 3 4 16 -1 27 -10 20 -17 20 -17 7 0 -8 10 -9 17 -3 17
6 0 14 -5 17 -11 5 -6 12 -4 20 7 7 11 19 15 29 11 9 -4 15 -3 11 2 -3 5 -2
11 2 14 5 2 3 3 -4 1 -12 -3 -12 21 2 33 4 4 5 2 0 -6 -5 -9 -4 -12 3 -7 6 3
8 16 5 29 -2 12 -6 29 -7 39 -1 9 -7 22 -13 30 -6 7 -10 25 -9 39 1 20 -2 25
-13 21 -10 -4 -13 -1 -8 11 4 11 2 14 -9 10 -9 -3 -14 1 -14 12 0 10 -5 13
-12 9 -8 -5 -9 -2 -4 11 6 16 4 16 -11 4 -10 -7 -15 -9 -11 -5 5 5 -1 16 -12
23 -14 10 -19 21 -15 34 4 11 2 19 -5 19 -6 0 -8 -4 -5 -10 3 -6 -1 -7 -9 -4
-9 3 -13 11 -9 17 3 5 -2 16 -12 24 -11 7 -13 13 -7 13 7 0 12 5 12 11 0 6 -7
9 -15 6 -8 -4 -17 -1 -21 5 -4 6 -3 8 3 5 6 -4 13 0 17 8 3 8 -2 19 -12 24
-14 8 -15 12 -3 23 12 11 13 11 6 0 -6 -11 -3 -12 13 -3 12 6 24 16 28 23 4 7
3 8 -4 4 -7 -4 -12 -2 -12 3 0 23 37 10 48 -17 10 -25 11 -25 6 -2 -5 25 -4
24 11 -3 9 -15 14 -31 11 -35 -2 -4 2 -16 10 -27 8 -10 14 -13 14 -6 0 7 4 9
10 6 6 -3 7 1 4 10 -4 11 -2 14 9 9 8 -3 18 0 23 7 4 7 3 10 -4 5 -6 -3 -13
-2 -17 4 -3 5 -2 10 4 10 5 0 8 11 7 24 -2 18 1 23 12 19 12 -5 12 -2 3 15
-12 22 0 39 20 26 7 -4 7 1 -1 16 -11 20 -10 21 10 10 18 -10 21 -9 18 1 -5
14 21 49 35 49 5 0 1 -7 -7 -16 -9 -8 -16 -20 -16 -26 0 -6 9 0 19 13 12 15
16 28 10 33 -14 15 -11 29 4 23 8 -3 14 1 14 9 0 8 -6 13 -12 10 -8 -3 -10 4
-7 20 3 17 0 24 -11 24 -8 0 -28 7 -43 16 -25 13 -26 15 -6 11 l24 -6 -24 23
c-13 12 -26 21 -30 19 -5 -2 -8 1 -8 8 0 10 -3 10 -12 1 -9 -9 -16 -8 -32 6
-20 16 -20 16 -7 -1 8 -9 11 -20 7 -24 -3 -3 -6 -1 -6 6 0 7 -5 9 -12 5 -7 -4
-10 -4 -6 1 4 4 2 15 -4 24 -7 9 -8 13 -4 9 5 -4 16 -2 24 4 20 17 45 19 54 5
6 -9 8 -9 8 1 0 6 7 12 16 12 8 0 12 4 9 10 -11 18 -14 51 -4 45 5 -4 9 -1 9
5 0 14 39 66 48 63 4 0 6 3 5 8 -2 5 2 9 7 9 6 0 10 4 10 10 0 5 -7 7 -15 4
-8 -4 -15 -2 -15 4 0 6 6 13 13 15 6 3 2 6 -10 6 -13 1 -23 6 -23 12 0 5 4 8
8 5 5 -3 9 1 9 9 0 8 -3 12 -7 10 -4 -2 -7 2 -7 10 0 8 3 12 7 10 3 -2 11 5
18 16 12 19 5 26 -14 12 -5 -5 -1 0 9 10 11 9 16 17 11 17 -4 0 1 7 12 16 10
8 14 13 7 10 -7 -4 -11 1 -10 14 1 14 6 19 17 15 13 -4 13 -4 0 8 -8 6 -16 19
-18 27 -3 12 -1 13 9 3 7 -7 17 -13 22 -13 5 0 1 7 -8 16 -13 13 -14 19 -4 25
7 4 17 5 22 2 5 -3 3 5 -4 18 -11 22 -11 23 4 10 13 -10 17 -10 17 -1 0 9 3
10 13 1 10 -8 19 -7 33 5 10 8 13 12 5 8 -10 -5 -12 -3 -7 5 5 8 12 9 19 2 13
-10 61 21 50 33 -3 3 -11 -2 -18 -11 -9 -13 -14 -13 -20 -3 -5 8 -4 11 2 7 6
-4 13 -1 16 7 4 9 15 13 29 10 13 -2 17 -2 11 2 -19 9 -16 27 3 20 14 -6 15
-4 4 9 -7 9 -9 15 -4 14 21 -4 45 2 40 9 -6 10 3 22 29 42 19 14 20 14 3 -6
-10 -11 -18 -24 -18 -29 0 -4 9 4 21 19 11 14 18 30 14 36 -4 6 1 7 11 3 13
-5 15 -3 9 7 -6 9 -4 12 7 8 10 -4 14 0 13 15 -1 12 2 28 8 35 12 15 -9 43
-28 36 -7 -3 -16 0 -20 5 -3 6 -10 9 -15 6 -4 -3 -7 1 -6 7 3 20 16 38 29 38
6 0 2 -7 -9 -16 -18 -14 -18 -15 4 -4 19 9 21 14 11 26 -9 11 -9 14 0 14 7 0
9 5 5 12 -5 8 -2 9 10 5 14 -6 15 -3 6 13 -6 11 -7 20 -3 20 4 0 8 15 8 33 l1
33 -59 2 c-33 2 -71 8 -86 14 -14 6 -29 11 -33 10 -5 -1 -8 2 -8 8 0 5 -7 10
-15 10 -8 0 -15 4 -15 8 0 4 -12 9 -27 10 -43 4 -57 7 -72 16 -10 6 -12 5 -7
-2 5 -8 -2 -13 -18 -13 -48 -3 -51 -4 -57 -12 -3 -5 -12 -9 -20 -11 -8 -1 -27
-10 -42 -21 -22 -14 -30 -16 -36 -6 -5 7 -12 13 -17 14 -12 3 -5 30 9 39 7 4
18 6 26 3 7 -3 20 0 27 6 7 6 18 8 24 4 5 -3 10 1 10 11 0 13 3 14 14 5 9 -8
16 -8 20 -2 4 5 -2 15 -11 20 -15 9 -14 10 9 7 20 -3 25 -1 21 10 -3 8 -10 11
-16 7 -6 -3 -7 -1 -3 6 6 9 11 9 22 0 12 -10 13 -9 9 4 -4 8 -1 18 6 23 7 4
10 3 5 -4 -3 -6 -2 -14 4 -17 6 -4 10 -3 9 2 -1 4 0 10 1 13 7 19 7 39 -1 34
-5 -3 -6 -10 -3 -16 5 -7 2 -8 -5 -4 -9 6 -9 12 3 25 9 10 13 21 9 24 -3 4 -1
7 5 7 7 0 12 7 12 16 0 9 5 12 13 8 6 -4 4 2 -6 13 -14 16 -15 22 -5 26 8 4 6
6 -5 6 -10 1 -16 5 -12 11 3 5 13 6 23 3 11 -4 9 1 -7 15 -15 14 -19 22 -10
22 11 0 11 2 -1 10 -8 5 -11 10 -6 10 6 0 1 7 -10 16 -15 13 -16 15 -2 10 12
-3 15 -1 11 10 -3 7 -11 14 -18 14 -8 0 -17 5 -21 12 -4 7 -3 8 4 4 8 -4 10
-2 6 8 -3 9 -12 12 -22 8 -15 -5 -15 -3 -4 10 11 14 10 16 -6 11 -13 -3 -25 3
-36 19 -9 12 -19 22 -21 21 -12 -7 -26 -2 -21 6 4 5 -4 7 -16 3 -12 -3 -19 -1
-15 5 3 5 0 10 -8 10 -8 0 -15 -3 -15 -7 0 -4 -20 -4 -45 0 -25 4 -45 4 -45 1z"/>
<path d="M1646 2478 c3 -5 10 -6 15 -3 13 9 11 12 -6 12 -8 0 -12 -4 -9 -9z"/>
<path d="M2066 1738 c3 -5 10 -6 15 -3 13 9 11 12 -6 12 -8 0 -12 -4 -9 -9z"/>
<path d="M690 1241 c0 -6 4 -13 10 -16 6 -3 7 1 4 9 -7 18 -14 21 -14 7z"/>
<path d="M1666 1098 c3 -5 10 -6 15 -3 13 9 11 12 -6 12 -8 0 -12 -4 -9 -9z"/>
<path d="M1585 1049 c-3 -4 2 -6 10 -5 21 3 28 13 10 13 -9 0 -18 -4 -20 -8z"/>
<path d="M1635 721 c-3 -5 0 -13 6 -17 7 -4 9 -3 5 4 -3 5 0 13 6 15 9 4 10 6
1 6 -6 1 -14 -3 -18 -8z"/>
<path d="M601 686 c-9 -11 -9 -16 1 -22 7 -4 10 -4 6 1 -4 4 -3 14 3 22 6 7 9
13 6 13 -2 0 -10 -6 -16 -14z"/>
<path d="M1645 420 c-3 -5 -1 -10 4 -10 6 0 11 5 11 10 0 6 -2 10 -4 10 -3 0
-8 -4 -11 -10z"/>
<path d="M1300 306 c0 -3 9 -10 20 -16 11 -6 20 -8 20 -6 0 3 -9 10 -20 16
-11 6 -20 8 -20 6z"/>
<path d="M1470 270 c0 -5 5 -10 10 -10 6 0 10 5 10 10 0 6 -4 10 -10 10 -5 0
-10 -4 -10 -10z"/>
<path d="M1623 245 c0 -8 4 -12 9 -9 5 3 6 10 3 15 -9 13 -12 11 -12 -6z"/>
</g>
</svg>
